# xmcd CD database file
#
# Track frame offsets:
#	182
#	11612
#	24207
#	38065
#	50905
#	64552
#	77902
#	92637
#	106837
#	119867
#	133555
#	146327
#	157970
#	170292
#	181470
#	192970
#	205927
#	218200
#	231967
#	246095
#	259362
#	273975
#	288185
#	300615
#	313962
#
# Disc length: 4377 seconds
#
# Revision: 0
# Processed by: cddbd v1.5.1PL0 Copyright (c) Steve Scherf et al.
# Submitted via: CDex 1.51
#
DISCID=67111719
DTITLE=Count Basie - Volume 3 (1929-1937)
DYEAR=1991
DGENRE=Jazz
TTITLE0=Lovin' that man blues
TTITLE1=Blue devil blues
TTITLE2=Squabblin'
TTITLE3=Shoe shine boy
TTITLE4=Shoe shine boy
TTITLE5=Evenin'
TTITLE6=Boogie woogie
TTITLE7=Oh! Laby be good
TTITLE8=Honeysuckle rose
TTITLE9=Pennies from heaven
TTITLE10=Swinging at the Daysy chain
TTITLE11=Roseland shuffle
TTITLE12=Exacly like you
TTITLE13=Boo-Hoo
TTITLE14=The glory of love
TTITLE15=Boogie woogie (I may be wrong)
TTITLE16=Smarty, you know it all
TTITLE17=One O'clock juùmp
TTITLE18=Listen my children
TTITLE19=John's idea
TTITLE20=Good morning blues
TTITLE21=Good morning blues
TTITLE22=Our love was meant to be
TTITLE23=Time out
TTITLE24=Topsy
EXTD=YEAR: 1991
EXTT0=
EXTT1=
EXTT2=
EXTT3=
EXTT4=
EXTT5=
EXTT6=
EXTT7=
EXTT8=
EXTT9=
EXTT10=
EXTT11=
EXTT12=
EXTT13=
EXTT14=
EXTT15=
EXTT16=
EXTT17=
EXTT18=
EXTT19=
EXTT20=
EXTT21=
EXTT22=
EXTT23=
EXTT24=
PLAYORDER=
